<svg xmlns="http://www.w3.org/2000/svg" width="1200" height="800" viewBox="0 0 1200 800">
  <defs>
    <linearGradient id="ring" x1="0" y1="0" x2="1" y2="1">
      <stop offset="0%" stop-color="#ff3b30"/>
      <stop offset="55%" stop-color="#ff6a3d"/>
      <stop offset="100%" stop-color="#ffb36b"/>
    </linearGradient>
    <linearGradient id="heart" x1="0" y1="0" x2="0" y2="1">
      <stop offset="0%" stop-color="#ff4b5c"/>
      <stop offset="100%" stop-color="#ff3347"/>
    </linearGradient>
    <linearGradient id="hands" x1="0" y1="0" x2="1" y2="0">
      <stop offset="0%" stop-color="#ffd7bf"/>
      <stop offset="100%" stop-color="#f8c7ad"/>
    </linearGradient>
  </defs>
  <rect width="100%" height="100%" fill="#ffffff"/>
  <circle cx="600" cy="400" r="240" fill="none" stroke="url(#ring)" stroke-width="22"/>
  <circle cx="600" cy="400" r="195" fill="none" stroke="#1f2a44" stroke-width="8" stroke-linecap="round" stroke-dasharray="260 750" transform="rotate(-12 600 400)"/>
  <circle cx="600" cy="400" r="195" fill="none" stroke="#1f2a44" stroke-width="8" stroke-linecap="round" stroke-dasharray="260 750" transform="rotate(168 600 400)"/>

  <g transform="translate(0 2)">
    <path d="M600 286c-22-26-63-23-83 2-22 27-17 63 11 87l72 62 72-62c28-24 33-60 11-87-20-25-61-28-83-2z" fill="url(#heart)"/>
    <path d="M521 427c-16 10-31 25-39 44-7 15-9 29-7 40 3 14 13 25 28 31 17 7 36 6 50-5 14-10 21-27 18-45-3-19-15-33-27-43-7-6-15-11-23-22z" fill="url(#hands)"/>
    <path d="M679 427c16 10 31 25 39 44 7 15 9 29 7 40-3 14-13 25-28 31-17 7-36 6-50-5-14-10-21-27-18-45 3-19 15-33 27-43 7-6 15-11 23-22z" fill="url(#hands)"/>
    <path d="M499 478c20 7 38 20 49 37 11 16 14 34 11 52-2 10-9 18-18 23-12 7-27 9-40 6-15-4-26-14-31-28-6-17-4-36 6-55 10-19 24-30 23-35z" fill="url(#hands)" opacity="0.95"/>
    <path d="M701 478c-20 7-38 20-49 37-11 16-14 34-11 52 2 10 9 18 18 23 12 7 27 9 40 6 15-4 26-14 31-28 6-17 4-36-6-55-10-19-24-30-23-35z" fill="url(#hands)" opacity="0.95"/>

    <path d="M548 400h45l18-31 18 62 16-39 13 8h42" fill="none" stroke="#ffffff" stroke-width="6" stroke-linecap="round" stroke-linejoin="round"/>
  </g>

  <text x="600" y="180" text-anchor="middle" font-family="Arial, Helvetica, sans-serif" font-size="44" font-weight="700" letter-spacing="10" fill="#111827">HEALTH ANALYSIS</text>
  <text x="600" y="650" text-anchor="middle" font-family="Arial, Helvetica, sans-serif" font-size="42" font-weight="700" letter-spacing="12" fill="#111827">AI</text>
</svg>
